<?xml version="1.0" encoding="UTF-8"?>
<svg width="72px" height="71px" viewBox="0 0 72 71" version="1.1" xmlns="http://www.w3.org/2000/svg" xmlns:xlink="http://www.w3.org/1999/xlink">
    <g id="Page-1" stroke="none" stroke-width="1" fill="none" fill-rule="evenodd">
        <g id="incognito" transform="translate(1.000000, 0.000000)">
            <polygon id="Triangle" fill-opacity="0.6" fill="#000000" transform="translate(35.000000, 35.827303) rotate(180.000000) translate(-35.000000, -35.827303) " points="70 0.654606802 70 71 0 71"></polygon>
            <path d="M17.141301,13.648872 C17.821258,9.059167 22.049312,6.72217 26.286184,8.605224 L31.503964,10.924238 C35.02005,12.486943 38.982346,12.485878 42.496036,10.924238 L47.713816,8.605224 C51.946824,6.723888 56.179201,9.062262 56.858699,13.648872 L58.244051,23 L15.755949,23 L17.141301,13.648872 Z M15.163356,27 L58.836644,27 L59.725532,33 L70,33 C70.552285,33 71,33.447715 71,34 L71,36 C71,36.552285 70.552285,37 70,37 L4,37 C3.447715,37 3,36.552285 3,36 L3,34 C3,33.447715 3.447715,33 4,33 L14.274468,33 L15.163356,27 Z M25,42 C28.70539,42 31.940078,44.015319 33.667748,47.009642 C34.620933,46.3719 35.767035,46 37,46 C38.232965,46 39.379067,46.3719 40.332252,47.009642 C42.059922,44.015319 45.29461,42 49,42 C52.271636,42 55.17632,43.571107 57.000732,46 L62,46 C62.552285,46 63,46.447715 63,47 L63,49 C63,49.552285 62.552285,50 62,50 L58.799964,50 C58.931139,50.64622 59,51.315068 59,52 C59,57.522847 54.522847,62 49,62 C43.477153,62 39,57.522847 39,52 C39,50.895431 38.104569,50 37,50 C35.895431,50 35,50.895431 35,52 C35,57.522847 30.522847,62 25,62 C19.477153,62 15,57.522847 15,52 C15,51.315068 15.068861,50.64622 15.200036,50 L12,50 C11.447715,50 11,49.552285 11,49 L11,47 C11,46.447715 11.447715,46 12,46 L16.999268,46 C18.82368,43.571107 21.728364,42 25,42 Z" id="Shape" stroke="#979797" fill="#FFFFFF"></path>
        </g>
    </g>
</svg>