<?xml version="1.0" encoding="UTF-8" standalone="no"?>
<svg
   xmlns:svg="http://www.w3.org/2000/svg"
   xmlns="http://www.w3.org/2000/svg"
   version="1.1"
   x="0px"
   y="0px"
   width="46.553307"
   height="46.200966"
   viewBox="0 0 46.553307 46.200966"
   >
	<defs><style>#searchpath{fill:#FFFFFF;}</style></defs>

<g id="XMLID_13_" transform="translate(-29.461,-26.738)">
	<path d="M 69.902,72.704 58.967,61.769 c -2.997,1.961 -6.579,3.111 -10.444,3.111 -10.539,0 -19.062,-8.542 -19.062,-19.081 0,-10.519 8.522,-19.061 19.062,-19.061 10.521,0 19.06,8.542 19.06,19.061 0,3.679 -1.036,7.107 -2.828,10.011 l 11.013,11.011 c 0.583,0.567 0.094,1.981 -1.076,3.148 l -1.64,1.644 c -1.17,1.167 -2.584,1.656 -3.15,1.091 z M 61.249,45.799 c 0,-7.033 -5.695,-12.727 -12.727,-12.727 -7.033,0 -12.745,5.694 -12.745,12.727 0,7.033 5.712,12.745 12.745,12.745 7.032,0 12.727,-5.711 12.727,-12.745 z"
			id="searchpath"/>
</g>
</svg>